<svg xmlns="http://www.w3.org/2000/svg" xmlns:xlink="http://www.w3.org/1999/xlink" version="1.0" x="0px" y="0px" viewBox="0 0 100 125" enable-background="new 0 0 100 100" xml:space="preserve"><path d="M53.7944984,22.6285782c4.8527946,1.0110664,9.6137314-2.1071415,10.6245918-6.9614725  c1.0118866-4.8528986-2.1086731-9.6074924-6.9624901-10.6185608c-4.8536148-1.0123973-9.6069832,2.1023326-10.6176414,6.9559474  C45.82687,16.8584137,48.9402695,21.6176128,53.7944984,22.6285782z"/><path d="M84.0066299,22.2162323L59.79216,26.7566261l-9.9807625-2.1117439l-7.7143478-1.6310673l-3.5350533-0.7486858  c-0.1102715-0.0223007-0.2195206-0.0310974-0.329998-0.0515556l-12.3185749,60.761837  c-1.1755562,5.6437302,1.7682419,11.0372467,7.4123783,12.213623l2.1872368-10.2133789l5.1815681-24.8682289l2.966713,0.6183662  l0.0321198,0.0024529l8.5474281,2.0271492l-1.0779686,5.577034c-1.1757584,5.6437302,1.7680397,11.0372467,7.4121742,12.2136154  L60.76231,70.3326721l3.1498184-15.2761841l-9.2784157-2.2915764l3.8666878-16.667881l17.3882332-3.1424522  C75.8886337,32.9545784,85.473114,31.6419506,84.0066299,22.2162323z"/><path d="M34.9868431,22.0959358c-4.8249722,0.5323353-8.9698982,4.1355152-10.0333405,9.2372932l-3.0692101,14.7320824  l-0.9893818,4.5209579c-0.8891335,4.2676773,1.8525333,8.4451332,6.115097,9.3334503L34.9868431,22.0959358z"/><polygon points="52.1477776,80.3569107 36.0146866,95 42.5004921,95 52.073719,86.1628723 58.8428802,92.9918747   72.9605865,80.5593491 74.8145523,73.348381 58.9957047,87.2280045 "/><text x="0" y="115" fill="#000000" font-size="5px" font-weight="bold" font-family="'Helvetica Neue', Helvetica, Arial-Unicode, Arial, Sans-serif">Created by Alex Tai</text><text x="0" y="120" fill="#000000" font-size="5px" font-weight="bold" font-family="'Helvetica Neue', Helvetica, Arial-Unicode, Arial, Sans-serif">from the Noun Project</text></svg>